<svg width="30" height="30" viewBox="0 0 30 30" fill="none" xmlns="http://www.w3.org/2000/svg">
<path d="M15 0.46875C6.97518 0.46875 0.46875 6.97752 0.46875 15C0.46875 23.0272 6.97518 29.5312 15 29.5312C23.0248 29.5312 29.5312 23.0272 29.5312 15C29.5312 6.97752 23.0248 0.46875 15 0.46875ZM15 26.7188C8.52352 26.7188 3.28125 21.4787 3.28125 15C3.28125 8.52568 8.52375 3.28125 15 3.28125C21.4741 3.28125 26.7188 8.52369 26.7188 15C26.7188 21.4764 21.4787 26.7188 15 26.7188ZM21.2838 11.7656C21.2838 15.6945 17.0404 15.7549 17.0404 17.2068V17.5781C17.0404 17.9664 16.7256 18.2812 16.3373 18.2812H13.6627C13.2744 18.2812 12.9595 17.9664 12.9595 17.5781V17.0708C12.9595 14.9763 14.5474 14.1391 15.7474 13.4663C16.7763 12.8895 17.407 12.4971 17.407 11.7332C17.407 10.7227 16.118 10.0519 15.0759 10.0519C13.7171 10.0519 13.0899 10.6951 12.2082 11.8079C11.9705 12.1079 11.5367 12.1637 11.2317 11.9324L9.60135 10.6962C9.30211 10.4693 9.23508 10.0478 9.44643 9.7374C10.8308 7.70455 12.5941 6.5625 15.3395 6.5625C18.2147 6.5625 21.2838 8.80688 21.2838 11.7656V11.7656ZM17.4609 21.5625C17.4609 22.9195 16.357 24.0234 15 24.0234C13.643 24.0234 12.5391 22.9195 12.5391 21.5625C12.5391 20.2055 13.643 19.1016 15 19.1016C16.357 19.1016 17.4609 20.2055 17.4609 21.5625Z" fill="white" fill-opacity="0.933333"/>
</svg>
