<svg width="30" height="30" viewBox="0 0 30 30" fill="none" xmlns="http://www.w3.org/2000/svg">
<path d="M13.6522 0.0585632C10.7577 0.339813 8.08582 1.40622 5.74207 3.21091C4.59949 4.08981 3.11707 5.74216 2.2616 7.08981C1.89246 7.66989 1.17175 9.14645 0.91394 9.84958C0.626831 10.6347 0.316284 11.8418 0.16394 12.7734C-0.0177002 13.916 -0.0177002 16.084 0.16394 17.2265C0.427612 18.8437 0.843628 20.1445 1.55261 21.5918C2.32605 23.1679 3.12878 24.2871 4.41785 25.582C5.71277 26.8711 6.83191 27.6738 8.40808 28.4472C9.85535 29.1562 11.1561 29.5722 12.7733 29.8359C13.9159 30.0175 16.0839 30.0175 17.2264 29.8359C18.8436 29.5722 20.1444 29.1562 21.5917 28.4472C23.1678 27.6738 24.287 26.8711 25.5819 25.582C26.871 24.2871 27.6737 23.1679 28.4471 21.5918C28.9628 20.5429 29.2206 19.8574 29.5018 18.8027C29.871 17.3965 29.9589 16.6289 29.9589 15C29.9589 13.3711 29.871 12.6035 29.5018 11.1972C29.2206 10.1425 28.9628 9.457 28.4471 8.40817C27.6737 6.832 26.871 5.71286 25.5819 4.41794C24.287 3.12888 23.1678 2.32614 21.5917 1.5527C20.1503 0.843719 18.8143 0.421844 17.2557 0.175751C16.3944 0.0409851 14.4725 -0.023468 13.6522 0.0585632ZM16.1483 2.46677C19.1249 2.75388 21.7616 4.00192 23.8768 6.12302C25.9979 8.23825 27.246 10.875 27.5331 13.8515C27.7909 16.4648 27.1229 19.3183 25.7343 21.5625C24.7499 23.1562 23.1561 24.75 21.5624 25.7343C19.3182 27.123 16.4647 27.791 13.8514 27.5332C10.8749 27.2461 8.23816 25.998 6.12292 23.8769C4.00183 21.7617 2.75378 19.125 2.46667 16.1484C2.20886 13.5351 2.87683 10.6816 4.2655 8.43747C5.24988 6.84372 6.84363 5.24997 8.43738 4.26559C10.6815 2.87692 13.535 2.20895 16.1483 2.46677Z" fill="white"/>
<path d="M10.4294 8.73634C8.40796 8.86524 7.4939 8.98829 7.16577 9.17579C6.80835 9.38087 6.60327 9.76173 6.60327 10.1953C6.60913 10.5762 6.70288 10.7871 6.98413 11.0566C7.34155 11.4024 7.53491 11.4199 8.87671 11.2793C10.072 11.1563 12.6619 11.0566 13.74 11.1035C17.0798 11.2324 19.3474 11.6602 21.6794 12.5977C22.2126 12.8086 22.3416 12.8379 22.6287 12.8203C23.6599 12.7441 24.0994 11.4785 23.3435 10.7695C23.0271 10.4766 21.4568 9.88477 19.9509 9.4922C17.3552 8.82423 13.6697 8.53126 10.4294 8.73634Z" fill="white"/>
<path d="M11.2792 13.4238C10.0019 13.4648 8.41987 13.6054 8.02729 13.7109C7.48823 13.8574 7.13081 14.3144 7.13667 14.8535C7.14253 15.3633 7.35346 15.709 7.80464 15.9433C8.06831 16.0781 8.32612 16.0781 9.34565 15.9609C10.4238 15.8379 13.7578 15.7851 14.9238 15.873C17.2734 16.0547 19.0019 16.4238 20.6542 17.0976C21.4042 17.4023 21.7382 17.4316 22.1367 17.2324C22.7988 16.8926 22.9921 16.0488 22.5351 15.4511C22.3828 15.2519 22.2421 15.1582 21.7675 14.9531C20.2499 14.2969 18.3105 13.8164 16.1718 13.5703C15.3925 13.4765 13.2597 13.3535 12.8027 13.3711C12.6738 13.3711 11.9882 13.4004 11.2792 13.4238Z" fill="white"/>
<path d="M10.6055 17.9648C9.74414 18.0293 8.44336 18.1699 8.23242 18.2285C7.81641 18.3457 7.38281 18.9258 7.38281 19.3711C7.38281 19.8164 7.74609 20.3203 8.17969 20.4843C8.43164 20.5781 8.50195 20.5781 9.48047 20.4843C10.9043 20.3437 12.9316 20.3027 14.1504 20.3847C16.2949 20.5371 17.6953 20.8242 19.2188 21.4277C20.0215 21.7441 20.3555 21.7734 20.748 21.5566C20.8887 21.4804 21.082 21.2988 21.1816 21.164C21.334 20.9355 21.3574 20.8594 21.3574 20.5078C21.3574 19.9453 21.1699 19.6816 20.5664 19.3828C19.3652 18.7968 17.4727 18.3164 15.4102 18.0703C14.6543 17.9824 11.3906 17.9121 10.6055 17.9648Z" fill="white"/>
</svg>
