<svg xmlns="http://www.w3.org/2000/svg" fill="none" viewBox="0 0 37 41"><path stroke="#E1E2E8" stroke-linecap="round" stroke-linejoin="round" stroke-width="3.5" d="M25.6 39v-7.3c.3-2.3-.4-4.6-1.8-6.4 5.5 0 11-3.6 11-10 0-2.3-.6-4.5-1.9-6.4.5-2 .5-4.2 0-6.3 0 0-1.8 0-5.4 2.7-4.8-1-9.8-1-14.6 0-3.6-2.7-5.4-2.7-5.4-2.7-.6 2-.6 4.2 0 6.3a9.8 9.8 0 0 0-1.9 6.4c0 6.4 5.5 10 11 10a8.6 8.6 0 0 0-1.9 6.4v7.2"/><path stroke="#E1E2E8" stroke-linecap="round" stroke-linejoin="round" stroke-width="3.5" d="M14.7 31.7C6.5 35.3 5.7 28 2 28"/></svg>