<svg xmlns="http://www.w3.org/2000/svg" fill="none" viewBox="0 0 36 36"><path fill="#E1E2E8" d="M16.46.3A17.52 17.52 0 0 0 .25 16 17.46 17.46 0 0 0 13.4 34.7a17.43 17.43 0 0 0 18.28-6.57 17.44 17.44 0 0 0-1.85-22.88A17.4 17.4 0 0 0 16.46.3Zm2.89 2.87a14.71 14.71 0 0 1 12.9 15.9 14.71 14.71 0 0 1-13.1 13.28c-1 .06-2.02.06-3.03 0A14.7 14.7 0 0 1 3.26 14.82 14.76 14.76 0 0 1 16.4 3.12c.98-.04 1.96-.03 2.94.05Z"/><path fill="#E1E2E8" d="M13.25 10.4c-1.25.04-2.54.15-3.67.28-.74.1-.85.12-1.1.29a1.4 1.4 0 0 0 .15 2.43c.3.14.55.16 1.14.09 2.36-.29 5.33-.38 7.58-.24 3.28.2 5.94.77 8.15 1.72.58.25.82.3 1.14.25a1.4 1.4 0 0 0 1.13-1.7 1.4 1.4 0 0 0-.5-.79 8.75 8.75 0 0 0-1.59-.7 28.58 28.58 0 0 0-8.08-1.58c-.98-.06-3.31-.1-4.35-.05Zm-.14 5.5c-1.97.1-3.54.27-3.88.44a1.4 1.4 0 0 0-.75 1.5 1.31 1.31 0 0 0 .74 1c.34.16.52.18 1.27.09 1.68-.2 3.37-.28 5.06-.24.98 0 1.95.05 2.93.15 2.21.22 4.3.72 5.88 1.39.29.13.63.25.75.27a1.39 1.39 0 0 0 1.19-2.37 1.88 1.88 0 0 0-.64-.39 24.3 24.3 0 0 0-8.06-1.8c-.9-.06-3.57-.1-4.5-.05Zm.07 5.28c-1.79.07-3.28.23-3.63.4a1.4 1.4 0 0 0 .26 2.6c.23.07.3.07 1.37-.04.36-.04.96-.1 1.32-.12a49.4 49.4 0 0 1 4.3 0c2.54.2 4.38.6 6 1.3l.5.22h.37c.34 0 .39 0 .6-.1a1.38 1.38 0 0 0 .38-2.27c-.2-.2-.36-.27-.93-.51-2.74-1.13-6.45-1.65-10.54-1.48Z"/></svg>