<svg xmlns="http://www.w3.org/2000/svg" fill="none" viewBox="0 0 46 34"><path stroke="#E1E2E8" stroke-linecap="round" stroke-linejoin="round" stroke-width="3.5" d="M22.7 31c-4.7 0-13-.3-16.6-1.2A4 4 0 0 1 3.3 27a49.3 49.3 0 0 1 0-20.5A4 4 0 0 1 6 3.7c3.6-.9 12-1.3 16.7-1.3 4.7 0 13 .4 16.6 1.3A4 4 0 0 1 42 6.5 49.3 49.3 0 0 1 42 27a4 4 0 0 1-2.8 2.8c-3.5.9-11.9 1.3-16.6 1.3v0Z"/><path stroke="#E1E2E8" stroke-linecap="round" stroke-linejoin="round" stroke-width="3.5" d="m18.6 22.9 10.2-6.1-10.2-6.2V23Z"/></svg>